<?xml version="1.0" standalone="no"?>
<!DOCTYPE svg PUBLIC "-//W3C//DTD SVG 20010904//EN"
 "http://www.w3.org/TR/2001/REC-SVG-20010904/DTD/svg10.dtd">
<svg version="1.0" xmlns="http://www.w3.org/2000/svg"
 width="800.000000pt" height="800.000000pt" viewBox="0 0 800.000000 800.000000"
 preserveAspectRatio="xMidYMid meet">
<metadata>
Created by potrace 1.11, written by Peter Selinger 2001-2013
</metadata>
<g transform="translate(0.000000,800.000000) scale(0.100000,-0.100000)"
fill="#000000" stroke="none">
<path d="M140 7975 c0 -6 -19 -10 -45 -9 -24 1 -49 -3 -54 -10 -5 -6 -8 -75
-7 -154 0 -89 -3 -142 -9 -142 -7 0 -7 -3 0 -8 6 -4 10 -55 10 -117 0 -62 -4
-113 -10 -117 -7 -5 -7 -8 0 -8 6 0 10 -45 10 -115 0 -70 -4 -115 -10 -115 -7
0 -7 -3 0 -8 6 -4 10 -56 10 -120 0 -68 -4 -112 -10 -112 -7 0 -7 -3 0 -8 6
-4 10 -55 10 -117 0 -62 -4 -113 -10 -117 -7 -5 -7 -8 0 -8 6 0 10 -45 10
-115 0 -70 -4 -115 -10 -115 -7 0 -7 -3 0 -8 6 -4 10 -55 10 -117 0 -62 -4
-113 -10 -117 -7 -5 -7 -8 0 -8 6 0 10 -37 10 -90 0 -49 -3 -90 -7 -90 -4 0
-5 -6 -2 -14 10 -26 9 -276 -1 -276 -7 0 -7 -3 0 -8 6 -4 10 -55 10 -117 0
-62 -4 -113 -10 -117 -7 -5 -7 -8 0 -8 6 0 10 -45 10 -115 0 -70 -4 -115 -10
-115 -7 0 -7 -3 0 -8 6 -4 10 -55 10 -117 0 -62 -4 -113 -10 -117 -7 -5 -7 -8
0 -8 6 0 10 -45 10 -115 0 -70 -4 -115 -10 -115 -7 0 -7 -3 0 -8 6 -4 10 -56
10 -120 0 -68 -4 -112 -10 -112 -7 0 -7 -3 0 -8 6 -4 10 -55 10 -117 0 -62 -4
-113 -10 -117 -7 -5 -7 -8 0 -8 6 0 10 -47 9 -124 -1 -85 2 -126 10 -129 6 -2
37 -3 69 -3 32 1 57 -3 57 -9 0 -7 3 -7 8 0 4 6 55 10 117 10 62 0 113 -4 117
-10 5 -7 8 -7 8 0 0 6 45 10 115 10 70 0 115 -4 115 -10 0 -7 3 -7 8 0 4 6 55
10 117 10 62 0 113 -4 117 -10 5 -7 8 -7 8 0 0 6 45 10 115 10 70 0 115 -4
115 -10 0 -7 3 -7 8 0 4 6 55 10 117 10 62 0 113 -4 117 -10 5 -7 8 -7 8 0 0
6 45 10 115 10 70 0 115 -4 115 -10 0 -7 3 -7 8 0 4 6 55 10 117 10 62 0 113
-4 117 -10 5 -7 8 -7 8 0 0 6 27 9 68 8 97 -3 105 1 100 48 -2 21 1 39 5 39 5
0 4 7 -3 15 -7 8 -8 15 -3 15 5 0 9 9 9 20 0 11 -4 20 -9 20 -5 0 -6 8 -2 18
10 26 11 142 1 142 -4 0 -5 8 -1 18 10 26 11 142 1 142 -4 0 -5 8 -1 18 10 26
11 142 1 145 -5 2 -5 10 1 20 5 10 7 39 3 66 -3 26 -3 60 1 74 4 15 3 29 -2
33 -5 3 -5 13 1 24 7 13 6 20 -2 22 -8 3 -8 9 -1 21 5 10 7 39 3 65 -3 26 -3
59 1 72 3 14 2 30 -3 37 -6 7 -5 19 1 32 8 14 8 21 -2 24 -9 4 -9 6 1 6 9 1
10 6 3 19 -5 10 -6 24 -2 30 4 7 5 33 1 57 -4 27 -3 45 3 45 5 0 4 7 -3 15 -7
9 -8 15 -2 15 12 0 11 32 -2 41 -4 4 -4 14 1 23 5 9 7 38 3 64 -3 26 -3 59 1
72 3 14 2 30 -3 37 -6 7 -5 19 1 32 8 14 8 21 -2 24 -9 4 -9 6 1 6 9 1 10 6 3
19 -5 10 -6 24 -1 31 4 8 5 25 1 40 -5 14 -4 38 0 53 4 16 4 30 1 32 -6 4 -7
62 -2 76 1 3 2 13 1 23 -1 9 3 17 9 17 6 0 8 5 5 10 -3 6 -1 10 5 10 6 0 9 4
6 9 -4 5 9 6 29 1 19 -4 35 -5 35 -1 0 3 29 4 65 1 36 -3 73 -1 81 3 9 5 19 6
23 1 9 -13 41 -14 41 -2 0 6 6 5 15 -2 8 -7 15 -8 15 -3 0 6 18 7 45 3 24 -4
50 -3 57 1 6 4 20 3 29 -2 12 -6 19 -5 22 4 4 9 6 9 6 -1 1 -10 6 -10 22 -2
12 7 25 8 32 2 7 -5 23 -6 37 -3 13 4 46 4 72 1 26 -4 55 -2 65 3 12 7 18 7
21 -1 2 -8 9 -9 22 -2 12 6 21 6 25 1 3 -5 17 -6 33 -2 15 4 39 5 53 1 15 -4
33 -4 40 0 7 5 21 4 30 -1 12 -6 19 -5 22 4 4 9 6 9 6 -1 1 -10 6 -10 22 -2
12 7 25 8 32 2 7 -5 23 -6 37 -3 13 4 46 4 72 1 26 -4 55 -2 64 3 9 5 19 5 23
1 9 -13 41 -14 41 -2 0 6 6 5 15 -2 8 -7 15 -8 15 -3 0 6 18 7 45 3 24 -4 50
-3 57 1 6 4 20 3 29 -2 12 -6 19 -5 22 4 4 9 6 9 6 -1 1 -10 6 -10 22 -2 12 7
25 8 32 2 7 -5 23 -6 37 -3 13 4 46 4 72 1 26 -4 55 -2 65 3 12 7 18 7 21 -1
2 -8 9 -9 22 -2 11 6 21 6 24 1 4 -5 18 -6 33 -2 14 4 48 4 74 1 82 -11 86 -4
85 133 -1 72 3 117 9 117 7 0 7 3 0 8 -13 9 -13 225 0 234 7 5 7 8 0 8 -6 0
-10 45 -10 115 0 70 4 115 10 115 7 0 7 3 0 8 -13 9 -14 65 0 74 6 5 6 8 0 8
-6 0 -10 45 -10 115 0 70 4 115 10 115 7 0 7 3 0 8 -13 9 -13 225 0 234 7 5 7
8 0 8 -6 0 -10 45 -10 115 0 70 4 115 10 115 7 0 7 3 0 8 -13 9 -13 225 0 234
7 5 7 8 0 8 -6 0 -10 39 -9 100 1 113 -4 123 -60 117 -22 -3 -36 0 -36 7 0 7
-3 7 -8 1 -4 -6 -55 -10 -117 -10 -62 0 -113 4 -117 10 -5 7 -8 7 -8 0 0 -6
-45 -10 -115 -10 -70 0 -115 4 -115 10 0 7 -3 7 -8 0 -4 -6 -55 -10 -117 -10
-62 0 -113 4 -117 10 -5 7 -8 7 -8 0 0 -6 -45 -10 -115 -10 -70 0 -115 4 -115
10 0 7 -3 7 -8 0 -4 -6 -56 -10 -120 -10 -68 0 -112 4 -112 10 0 7 -3 7 -8 0
-4 -6 -55 -10 -117 -10 -62 0 -113 4 -117 10 -5 7 -8 7 -8 0 0 -11 -380 -12
-399 -1 -6 4 -11 4 -11 -1 0 -4 -68 -8 -150 -8 -93 0 -150 4 -150 10 0 7 -3 7
-8 0 -4 -6 -55 -10 -117 -10 -62 0 -113 4 -117 10 -5 7 -8 7 -8 0 0 -6 -45
-10 -115 -10 -70 0 -115 4 -115 10 0 7 -3 7 -8 0 -4 -6 -55 -10 -117 -10 -62
0 -113 4 -117 10 -5 7 -8 7 -8 0 0 -6 -45 -10 -115 -10 -70 0 -115 4 -115 10
0 7 -3 7 -8 0 -4 -6 -55 -10 -117 -10 -62 0 -113 4 -117 10 -5 7 -8 7 -8 0 0
-6 -45 -10 -115 -10 -70 0 -115 4 -115 10 0 7 -3 7 -8 0 -9 -13 -105 -13 -114
0 -5 7 -8 6 -8 0z"/>
<path d="M4340 7975 c0 -6 -53 -9 -142 -9 -79 1 -148 -2 -154 -7 -7 -6 -10
-88 -10 -254 1 -157 -3 -245 -9 -245 -7 0 -7 -3 0 -8 6 -4 10 -56 10 -120 0
-68 -4 -112 -10 -112 -7 0 -7 -3 0 -8 6 -4 10 -189 10 -517 0 -328 -4 -513
-10 -517 -7 -5 -7 -8 0 -8 6 0 10 -34 9 -88 -1 -49 1 -94 5 -100 4 -7 18 -12
32 -12 13 0 56 -1 94 -1 39 -1 75 -1 80 -1 6 0 18 3 28 7 9 4 17 3 17 -1 0
-10 116 -9 143 1 10 4 17 3 17 -4 0 -8 5 -9 19 -1 12 6 22 6 25 1 4 -5 18 -6
33 -2 14 4 48 4 74 1 27 -4 56 -2 66 3 12 7 18 7 21 -1 2 -8 9 -9 22 -2 12 6
21 6 25 1 3 -5 17 -6 33 -2 15 4 39 5 53 1 15 -4 33 -4 40 0 7 5 21 4 30 -1
12 -6 19 -5 22 4 4 9 6 9 6 -1 1 -10 6 -10 22 -2 12 7 25 8 32 2 7 -5 23 -6
37 -3 13 4 46 4 72 1 26 -4 55 -2 64 3 9 5 19 5 23 1 9 -13 41 -14 41 -2 0 6
6 5 15 -2 8 -7 15 -8 15 -3 0 6 18 7 45 3 24 -4 50 -3 57 1 6 4 20 3 29 -2 12
-6 19 -5 22 4 4 9 6 9 6 -1 1 -10 6 -10 22 -2 12 7 25 8 32 2 7 -5 23 -6 37
-3 13 4 46 4 72 1 26 -4 55 -2 65 3 12 7 18 7 21 -1 2 -8 9 -9 22 -2 12 6 21
6 25 1 3 -6 17 -6 34 -1 16 4 31 7 33 5 2 -2 26 -4 53 -4 48 -1 97 -2 123 -4
6 0 12 -4 12 -9 0 -5 6 -6 13 -2 6 4 9 4 5 -1 -4 -4 -3 -16 2 -26 7 -12 7 -20
0 -24 -8 -5 -7 -11 1 -21 9 -11 9 -14 0 -14 -8 0 -9 -5 -2 -19 6 -10 8 -21 5
-24 -10 -9 -10 -97 0 -97 4 0 5 -8 1 -17 -10 -27 -11 -143 -1 -143 4 0 5 -8 1
-17 -10 -27 -11 -143 -1 -143 4 0 5 -8 1 -17 -10 -27 -11 -143 -1 -146 5 -2 5
-10 -1 -20 -5 -10 -6 -40 -3 -67 4 -27 3 -55 -1 -62 -4 -7 -3 -16 4 -20 9 -6
9 -8 -1 -8 -9 0 -10 -5 -3 -18 5 -10 6 -24 2 -30 -4 -7 -5 -33 -1 -57 4 -27 3
-45 -3 -45 -5 0 -4 -7 3 -15 7 -9 8 -15 2 -15 -12 0 -11 -32 2 -41 4 -4 4 -14
-1 -23 -5 -9 -7 -38 -3 -64 3 -26 3 -59 -1 -72 -3 -14 -2 -30 3 -37 6 -7 5
-19 -1 -32 -8 -14 -8 -21 2 -24 9 -4 9 -6 -1 -6 -9 -1 -10 -6 -3 -20 6 -10 8
-21 5 -24 -10 -9 -10 -97 0 -97 4 0 5 -8 1 -17 -10 -27 -11 -143 -1 -146 6 -2
5 -10 0 -20 -5 -9 -7 -48 -4 -87 3 -40 3 -73 -1 -75 -12 -8 4 -65 20 -69 9 -2
53 -4 99 -3 49 1 82 -2 82 -8 0 -7 3 -7 8 0 4 7 295 10 837 10 542 0 833 -3
837 -10 5 -6 8 -6 8 2 0 7 11 9 31 6 52 -8 77 3 74 32 -2 14 2 25 8 25 8 0 8
3 2 8 -5 4 -10 23 -10 42 0 19 5 38 10 42 7 5 7 8 0 8 -6 0 -10 45 -10 115 0
70 4 115 10 115 7 0 7 3 0 8 -6 4 -10 55 -10 117 0 62 4 113 10 117 7 5 7 8 0
8 -6 0 -10 84 -10 232 0 144 4 236 10 240 7 5 7 8 0 8 -6 0 -10 45 -10 115 0
70 4 115 10 115 7 0 7 3 0 8 -6 4 -10 55 -10 117 0 62 4 113 10 117 7 5 7 8 0
8 -6 0 -10 67 -10 180 0 99 4 180 8 180 4 0 3 9 -3 20 -8 14 -8 20 0 20 6 0 8
5 5 11 -12 18 -13 59 -1 59 7 0 7 3 1 8 -6 4 -10 55 -10 117 0 62 4 113 10
117 7 5 7 8 0 8 -6 0 -10 45 -10 115 0 70 4 115 10 115 7 0 7 3 0 8 -6 4 -10
95 -10 237 0 142 4 233 10 237 7 5 7 8 0 8 -6 0 -10 45 -10 115 0 70 4 115 10
115 7 0 7 3 0 8 -6 4 -10 55 -10 117 0 62 4 113 10 117 7 5 7 8 0 8 -6 0 -10
72 -9 197 1 109 -1 203 -3 209 -3 8 -44 11 -129 10 -77 -1 -124 3 -124 9 0 7
-3 7 -8 0 -4 -6 -55 -10 -117 -10 -62 0 -113 4 -117 10 -5 7 -8 7 -8 0 0 -6
-45 -10 -115 -10 -70 0 -115 4 -115 10 0 7 -3 7 -8 0 -4 -6 -55 -10 -117 -10
-62 0 -113 4 -117 10 -5 7 -8 7 -8 0 0 -6 -45 -10 -115 -10 -70 0 -115 4 -115
10 0 7 -3 7 -8 0 -4 -6 -56 -10 -120 -10 -68 0 -112 4 -112 10 0 7 -3 7 -8 0
-4 -6 -55 -10 -117 -10 -62 0 -113 4 -117 10 -5 7 -8 7 -8 0 0 -10 -250 -11
-276 -1 -8 3 -14 2 -14 -2 0 -4 -40 -7 -90 -7 -53 0 -90 4 -90 10 0 7 -3 7 -8
0 -4 -6 -55 -10 -117 -10 -62 0 -113 4 -117 10 -5 7 -8 7 -8 0 0 -6 -45 -10
-115 -10 -70 0 -115 4 -115 10 0 7 -3 7 -8 0 -4 -6 -55 -10 -117 -10 -62 0
-113 4 -117 10 -5 7 -8 7 -8 0 0 -6 -45 -10 -115 -10 -70 0 -115 4 -115 10 0
7 -3 7 -8 0 -4 -6 -56 -10 -120 -10 -68 0 -112 4 -112 10 0 7 -3 7 -8 0 -4 -6
-55 -10 -117 -10 -62 0 -113 4 -117 10 -5 7 -8 7 -8 0z"/>
<path d="M2383 5914 c3 -6 -48 -9 -130 -9 -93 1 -139 -2 -147 -11 -9 -9 -12
-89 -12 -307 1 -174 -3 -293 -8 -290 -5 4 -6 0 -1 -7 12 -20 14 -221 2 -213
-6 4 -7 1 -2 -6 10 -17 13 -171 3 -177 -5 -3 -5 -11 -1 -17 11 -18 11 -207 0
-200 -6 3 -7 1 -3 -6 12 -19 15 -182 3 -174 -6 4 -7 1 -2 -8 13 -20 14 -140 2
-132 -6 3 -7 1 -3 -6 12 -19 15 -182 3 -174 -6 4 -7 1 -1 -8 12 -21 12 -139 0
-139 -6 0 -4 -5 4 -10 11 -7 11 -10 2 -10 -8 0 -10 -5 -6 -12 11 -18 11 -627
0 -621 -5 4 -6 0 -1 -7 12 -20 14 -221 2 -213 -6 4 -7 1 -2 -6 10 -17 13 -171
3 -177 -5 -3 -5 -11 -1 -17 11 -17 10 -546 -1 -540 -5 4 -6 0 -1 -8 5 -7 10
-74 11 -149 1 -74 2 -142 3 -150 1 -13 22 -16 144 -15 78 1 150 -3 161 -8 10
-5 16 -5 13 0 -7 11 454 10 472 -2 9 -5 12 -4 8 2 -8 12 155 9 174 -3 7 -4 9
-3 6 3 -7 11 182 11 200 0 6 -4 14 -4 17 1 6 10 160 7 177 -3 7 -5 10 -4 5 3
-7 12 102 11 122 -1 6 -4 13 -4 16 1 6 10 160 7 177 -3 7 -5 10 -4 6 1 -7 12
833 11 852 -1 8 -4 12 -4 8 1 -7 12 613 11 632 -1 8 -5 12 -4 8 1 -3 5 116 9
290 8 227 0 298 3 308 12 9 9 12 39 10 99 -2 58 0 83 7 79 7 -5 8 -2 3 5 -10
17 -13 171 -3 177 5 3 5 10 1 16 -12 20 -13 129 -1 122 7 -5 8 -2 3 5 -10 17
-13 171 -3 177 5 3 5 11 1 17 -11 18 -11 207 0 200 6 -3 7 -1 3 6 -12 19 -15
182 -3 174 6 -4 7 -1 2 8 -12 18 -13 479 -1 472 5 -4 6 0 1 8 -13 20 -13 289
0 289 5 0 3 5 -5 10 -12 8 -12 10 -1 10 10 0 11 3 2 13 -8 10 -7 17 1 25 7 7
8 12 3 12 -6 0 -10 55 -10 129 -1 79 3 127 9 124 5 -3 6 -1 2 6 -12 19 -15
182 -3 174 6 -4 7 -1 2 8 -12 18 -13 479 -1 472 5 -4 6 0 1 7 -12 20 -13 300
-1 293 5 -3 6 -1 2 6 -12 19 -15 182 -3 174 6 -4 7 -1 2 8 -13 20 -14 140 -2
132 6 -3 7 -1 3 6 -12 19 -15 182 -3 174 6 -4 7 -1 2 7 -5 8 -9 39 -11 69 -1
31 -2 63 -3 71 -1 13 -18 16 -103 15 -57 -1 -108 3 -115 7 -6 5 -14 5 -17 0
-6 -10 -159 -7 -177 3 -7 5 -10 4 -6 -2 8 -12 -193 -10 -213 2 -7 5 -11 4 -7
-1 6 -11 -523 -12 -540 -1 -6 4 -14 4 -17 -1 -6 -10 -160 -7 -177 3 -8 5 -10
4 -5 -3 9 -15 -19 -16 -46 -1 -11 6 -18 7 -14 1 7 -11 -157 -8 -175 4 -7 4 -9
3 -6 -2 3 -6 -45 -10 -124 -9 -71 0 -129 4 -129 9 0 5 -7 3 -15 -4 -12 -10
-15 -10 -15 1 0 11 -2 11 -10 -1 -9 -13 -11 -13 -20 0 -5 8 -10 10 -10 5 0
-12 -178 -14 -197 -2 -6 4 -14 4 -17 -1 -6 -10 -160 -7 -177 3 -7 5 -10 4 -6
-2 8 -12 -193 -10 -213 2 -7 5 -11 4 -7 -1 6 -11 -523 -12 -540 -1 -6 4 -14 4
-17 -1 -6 -10 -160 -7 -177 3 -7 5 -10 4 -6 -2 8 -12 -193 -10 -213 2 -8 5
-11 4 -7 -1z"/>
<path d="M220 3975 c0 -6 -33 -10 -81 -9 -54 1 -85 -3 -94 -12 -9 -10 -12 -57
-11 -194 1 -114 -3 -180 -9 -180 -7 0 -7 -3 0 -8 6 -4 10 -56 10 -120 0 -68
-4 -112 -10 -112 -7 0 -7 -3 0 -8 6 -4 10 -55 10 -117 0 -62 -4 -113 -10 -117
-7 -5 -7 -8 0 -8 6 0 10 -45 10 -115 0 -70 -4 -115 -10 -115 -7 0 -7 -3 0 -8
6 -4 10 -55 10 -117 0 -62 -4 -113 -10 -117 -7 -5 -7 -8 0 -8 6 0 10 -45 10
-115 0 -70 -4 -115 -10 -115 -7 0 -7 -3 0 -8 6 -4 10 -55 10 -117 0 -62 -4
-113 -10 -117 -7 -5 -6 -8 1 -8 10 0 10 -100 -1 -128 -2 -6 -1 -12 3 -12 4 0
7 -74 7 -165 0 -103 -4 -165 -10 -165 -7 0 -7 -3 0 -8 6 -4 10 -56 10 -120 0
-68 -4 -112 -10 -112 -7 0 -7 -3 0 -8 6 -4 10 -55 10 -117 0 -62 -4 -113 -10
-117 -7 -5 -7 -8 0 -8 6 0 10 -45 10 -115 0 -70 -4 -115 -10 -115 -7 0 -7 -3
0 -8 6 -4 10 -55 10 -117 0 -62 -4 -113 -10 -117 -7 -5 -7 -8 0 -8 6 0 10 -45
10 -115 0 -70 -4 -115 -10 -115 -7 0 -7 -3 0 -8 6 -4 10 -55 10 -117 0 -62 -4
-113 -10 -117 -7 -5 -7 -8 0 -8 6 0 10 -32 9 -77 -1 -43 1 -83 3 -90 3 -7 22
-10 49 -9 26 1 44 -2 44 -8 0 -7 3 -8 8 -1 4 6 55 10 117 10 62 0 113 -4 117
-10 5 -7 8 -7 8 0 0 14 702 14 712 0 5 -7 8 -7 8 0 0 6 45 10 115 10 70 0 115
-4 115 -10 0 -7 3 -7 8 0 4 6 55 10 117 10 62 0 113 -4 117 -10 5 -7 8 -7 8 0
0 11 366 12 394 2 9 -4 16 -1 16 5 0 7 4 7 14 -1 11 -9 15 -9 19 1 4 11 6 10
6 0 1 -7 6 -10 12 -6 19 11 249 10 249 -1 0 -7 3 -7 8 0 4 6 82 10 197 10 115
0 193 -4 197 -10 5 -7 8 -7 8 0 0 6 45 10 115 10 70 0 115 -4 115 -10 0 -7 3
-7 8 0 4 6 55 10 117 10 62 0 113 -4 117 -10 5 -7 8 -7 8 0 0 6 84 10 232 10
144 0 236 -4 240 -10 5 -7 8 -7 8 0 0 6 53 9 142 9 79 -1 148 2 154 7 7 6 10
88 10 254 -1 157 3 245 9 245 7 0 7 3 0 8 -6 4 -10 55 -10 117 0 62 4 113 10
117 7 5 7 8 0 8 -6 0 -10 45 -10 115 0 70 4 115 10 115 7 0 7 3 0 8 -6 4 -10
55 -10 117 0 62 4 113 10 117 7 5 7 8 0 8 -6 0 -10 45 -10 115 0 70 4 115 10
115 7 0 7 3 0 8 -6 4 -10 55 -10 117 0 62 4 113 10 117 7 5 7 8 0 8 -6 0 -10
44 -10 112 0 64 4 116 10 120 6 5 5 8 -3 8 -7 0 -12 8 -10 17 2 14 -5 18 -36
20 -21 1 -41 5 -44 7 -2 3 -13 1 -24 -5 -12 -6 -24 -7 -31 -1 -7 5 -23 6 -37
3 -13 -4 -46 -4 -72 -1 -26 4 -55 2 -65 -3 -12 -7 -18 -7 -21 1 -2 8 -9 9 -22
2 -12 -6 -21 -6 -25 -1 -3 6 -18 6 -37 0 -17 -5 -36 -5 -42 0 -6 4 -22 5 -36
2 -13 -4 -46 -4 -72 -1 -26 4 -55 2 -65 -3 -12 -7 -18 -7 -21 1 -2 8 -9 9 -22
2 -11 -6 -21 -6 -24 -1 -4 5 -18 6 -33 2 -14 -4 -48 -4 -74 -1 -27 4 -56 2
-66 -3 -10 -6 -18 -6 -20 -1 -3 10 -119 9 -145 -1 -10 -4 -18 -3 -18 1 0 10
-88 10 -97 0 -3 -3 -14 -1 -24 4 -12 7 -19 6 -22 -3 -4 -9 -6 -9 -6 1 -1 10
-6 10 -22 2 -12 -7 -25 -8 -32 -2 -7 5 -23 6 -37 3 -13 -4 -46 -4 -72 -1 -26
4 -55 2 -64 -3 -9 -5 -19 -5 -23 -1 -9 13 -41 14 -41 2 0 -6 -6 -5 -15 2 -8 7
-15 8 -15 3 0 -6 -18 -7 -45 -3 -24 4 -50 3 -57 -1 -6 -4 -20 -3 -29 2 -12 6
-19 5 -22 -4 -4 -9 -6 -9 -6 1 -1 9 -6 10 -20 3 -10 -6 -20 -8 -22 -6 -3 2
-27 4 -54 4 -48 1 -97 2 -122 4 -7 0 -13 4 -13 9 0 5 -6 6 -12 2 -7 -4 -10 -4
-6 1 4 4 3 16 -2 26 -7 12 -7 20 0 24 8 5 7 11 -1 21 -9 11 -9 14 0 14 8 0 9
5 2 18 -5 10 -6 24 -1 31 4 8 4 26 0 41 -4 15 -4 33 1 41 5 8 3 16 -4 21 -9 6
-9 8 1 8 9 0 10 5 3 18 -5 10 -6 24 -2 30 4 7 5 33 1 57 -4 27 -3 45 3 45 5 0
4 7 -3 15 -7 9 -8 15 -2 15 12 0 11 32 -2 41 -4 4 -4 14 1 23 5 9 7 38 3 64
-3 26 -3 59 1 72 3 14 2 30 -3 37 -6 7 -5 19 1 32 8 14 8 21 -2 24 -9 4 -9 6
1 6 9 1 10 6 3 19 -5 10 -6 24 -1 31 4 8 5 25 1 40 -5 14 -4 38 0 53 4 16 3
30 -2 34 -5 3 -5 13 1 24 7 13 6 20 -2 22 -8 3 -8 9 -1 21 5 10 7 39 3 65 -3
26 -3 59 1 72 3 14 2 30 -3 37 -6 7 -5 19 1 32 8 14 8 21 -2 24 -9 4 -9 6 1 6
9 1 10 6 3 19 -5 10 -6 24 -2 30 4 7 5 33 1 57 -4 27 -3 45 3 45 5 0 4 7 -3
15 -7 9 -8 15 -2 15 12 0 11 32 -2 41 -4 4 -4 14 1 23 5 9 7 38 3 64 -3 26 -3
59 1 72 3 14 2 30 -3 37 -6 7 -5 19 1 32 8 14 8 21 -2 24 -9 4 -9 6 1 6 9 1
10 6 3 19 -5 10 -6 24 -1 31 4 8 5 25 1 40 -5 14 -4 38 0 53 4 16 3 30 -2 34
-5 3 -5 12 0 23 19 34 -14 38 -312 37 -185 -1 -287 3 -287 9 0 7 -3 7 -8 0 -4
-6 -56 -10 -120 -10 -68 0 -112 4 -112 10 0 7 -3 7 -8 0 -4 -6 -135 -10 -357
-10 -222 0 -353 4 -357 10 -5 7 -8 7 -8 0 0 -6 -44 -10 -112 -10 -64 0 -116 4
-120 10 -5 7 -8 7 -8 0z"/>
<path d="M6220 3975 c0 -6 -43 -9 -112 -9 -66 1 -118 -3 -126 -9 -9 -7 -12
-31 -11 -72 1 -34 -1 -67 -5 -73 -3 -5 0 -13 6 -15 10 -4 10 -6 0 -6 -9 -1
-10 -6 -3 -19 5 -10 6 -24 2 -30 -4 -7 -5 -33 -1 -57 4 -27 3 -45 -3 -45 -5 0
-4 -7 3 -15 7 -9 8 -15 2 -15 -12 0 -11 -32 2 -41 4 -4 4 -14 -1 -23 -5 -9 -7
-38 -3 -64 3 -26 3 -59 -1 -72 -3 -14 -2 -30 3 -37 6 -7 5 -19 -1 -32 -8 -14
-8 -21 2 -24 9 -4 9 -6 -1 -6 -9 -1 -10 -6 -3 -20 6 -10 8 -21 5 -24 -10 -9
-10 -97 0 -97 4 0 5 -8 1 -17 -10 -27 -11 -143 -1 -146 5 -2 5 -10 -1 -20 -5
-10 -7 -39 -3 -66 3 -26 3 -60 -1 -74 -4 -15 -3 -29 2 -33 5 -3 5 -13 -1 -24
-7 -13 -6 -20 2 -22 8 -3 8 -9 1 -21 -5 -10 -7 -39 -3 -65 3 -26 3 -59 -1 -72
-3 -14 -2 -30 2 -36 5 -6 5 -25 0 -42 -6 -19 -6 -34 0 -37 5 -4 5 -13 -1 -25
-7 -13 -6 -20 2 -22 8 -3 8 -9 1 -21 -5 -10 -7 -39 -3 -66 3 -26 3 -60 -1 -74
-4 -15 -3 -29 2 -33 5 -3 5 -13 -1 -24 -7 -13 -6 -20 2 -22 8 -3 8 -9 -1 -25
-7 -15 -8 -24 -1 -28 6 -4 7 -11 4 -17 -4 -6 -8 -29 -9 -52 -3 -59 -4 -63 -15
-46 -8 12 -10 12 -15 -2 -5 -12 -13 -14 -34 -8 -16 4 -34 4 -42 0 -7 -5 -21
-4 -31 1 -13 7 -18 6 -18 -3 0 -10 -2 -10 -8 -1 -5 7 -13 9 -21 4 -8 -5 -26
-5 -41 -1 -15 4 -33 4 -41 0 -7 -5 -21 -4 -30 1 -12 6 -19 5 -22 -4 -4 -9 -6
-9 -6 1 -1 10 -6 10 -22 2 -12 -7 -25 -8 -32 -2 -7 5 -23 6 -37 3 -13 -4 -46
-4 -72 -1 -26 4 -55 2 -64 -3 -9 -5 -19 -5 -23 -1 -9 13 -41 14 -41 2 0 -6 -6
-5 -15 2 -8 7 -15 8 -15 3 0 -6 -18 -7 -45 -3 -24 4 -50 3 -57 -1 -6 -4 -20
-3 -30 2 -13 7 -18 6 -18 -3 0 -10 -2 -10 -8 -1 -5 7 -13 9 -21 4 -8 -5 -26
-5 -41 -1 -15 4 -33 4 -41 0 -7 -5 -21 -4 -30 1 -12 6 -19 5 -22 -4 -4 -9 -6
-9 -6 1 -1 10 -6 10 -22 2 -12 -7 -25 -8 -32 -2 -7 5 -23 6 -37 3 -13 -4 -46
-4 -72 -1 -26 4 -55 2 -64 -3 -9 -5 -19 -5 -23 -1 -9 13 -41 14 -41 2 0 -6 -6
-5 -15 2 -8 7 -15 8 -15 3 0 -6 -18 -7 -45 -3 -24 4 -50 3 -57 -1 -6 -4 -20
-3 -30 2 -13 7 -18 6 -18 -3 0 -10 -2 -10 -8 -1 -5 7 -13 9 -21 4 -8 -5 -26
-5 -41 -1 -15 4 -33 4 -41 0 -7 -5 -21 -4 -30 1 -12 6 -19 5 -22 -4 -4 -9 -6
-9 -6 1 -1 10 -6 10 -22 2 -12 -7 -25 -8 -32 -2 -7 5 -23 6 -37 3 -13 -4 -46
-4 -72 -1 -26 4 -55 2 -65 -3 -11 -7 -18 -7 -21 1 -2 6 -9 9 -15 7 -7 -2 -24
-6 -38 -9 l-25 -5 0 -161 c1 -100 -3 -160 -9 -160 -7 0 -7 -3 0 -8 6 -4 10
-56 10 -120 0 -68 -4 -112 -10 -112 -7 0 -7 -3 0 -8 6 -4 10 -135 10 -357 0
-222 -4 -353 -10 -357 -7 -5 -7 -8 0 -8 6 0 10 -45 10 -115 0 -70 -4 -115 -10
-115 -7 0 -7 -3 0 -8 13 -9 13 -225 0 -234 -7 -5 -7 -8 0 -8 6 0 9 -33 8 -82
-1 -46 0 -95 3 -110 5 -24 9 -26 50 -24 26 1 44 -2 44 -8 0 -7 3 -8 8 -1 4 6
96 10 240 10 148 0 232 -4 232 -10 0 -7 3 -7 8 0 4 6 55 10 117 10 62 0 113
-4 117 -10 5 -7 8 -7 8 0 0 6 45 10 115 10 70 0 115 -4 115 -10 0 -7 3 -7 8 0
4 6 39 10 77 10 39 0 73 -4 77 -10 5 -7 8 -7 8 0 0 6 45 10 115 10 70 0 115
-4 115 -10 0 -7 3 -7 8 0 4 6 55 10 117 10 62 0 113 -4 117 -10 5 -7 8 -7 8 0
0 11 200 12 219 1 6 -4 11 -1 11 6 0 9 3 9 10 -2 6 -10 10 -11 10 -3 0 9 7 10
25 3 14 -5 25 -6 25 -2 0 4 38 7 85 7 50 0 85 -4 85 -10 0 -7 3 -7 8 0 4 6 55
10 117 10 62 0 113 -4 117 -10 5 -7 8 -7 8 0 0 6 45 10 115 10 70 0 115 -4
115 -10 0 -7 3 -7 8 0 4 6 95 10 237 10 142 0 233 -4 237 -10 5 -7 8 -7 8 0 0
6 45 10 115 10 70 0 115 -4 115 -10 0 -7 3 -7 8 0 4 6 55 10 117 10 62 0 113
-4 117 -10 5 -7 8 -7 8 0 0 6 48 10 122 10 71 0 126 -4 130 -10 5 -6 8 -5 8 3
0 7 4 11 9 8 18 -12 38 5 35 30 -1 13 3 24 9 24 8 0 8 3 2 8 -6 4 -10 70 -10
162 0 92 4 158 10 162 7 5 7 8 0 8 -6 0 -10 58 -10 155 0 97 4 155 10 155 7 0
7 3 0 8 -6 4 -10 69 -10 157 0 88 4 153 10 157 7 5 7 8 0 8 -6 0 -10 58 -10
155 0 97 4 155 10 155 7 0 7 3 0 8 -6 4 -10 69 -10 157 0 88 4 153 10 157 7 5
7 8 0 8 -6 0 -10 50 -10 130 0 72 3 130 7 130 4 0 5 7 2 15 -11 27 -10 355 1
355 7 0 7 3 0 8 -6 4 -10 69 -10 157 0 88 4 153 10 157 7 5 7 8 0 8 -6 0 -10
98 -10 272 0 171 4 276 10 280 7 5 7 8 0 8 -6 0 -10 45 -10 115 0 70 4 115 10
115 7 0 7 3 0 8 -6 4 -10 55 -10 117 0 62 4 113 10 117 7 5 7 8 0 8 -6 0 -10
45 -9 117 1 122 -6 148 -37 138 -12 -4 -19 -1 -19 7 0 8 -3 9 -8 3 -9 -13
-225 -13 -234 0 -5 7 -8 7 -8 0 0 -6 -45 -10 -115 -10 -70 0 -115 4 -115 10 0
6 -3 6 -8 0 -9 -14 -65 -13 -74 0 -5 7 -8 7 -8 0 0 -6 -45 -10 -115 -10 -70 0
-115 4 -115 10 0 6 -3 6 -8 0 -9 -14 -65 -13 -74 0 -5 7 -8 7 -8 0 0 -6 -45
-10 -115 -10 -70 0 -115 4 -115 10 0 6 -3 6 -8 0 -9 -14 -65 -13 -74 0 -5 7
-8 7 -8 0 0 -6 -45 -10 -115 -10 -70 0 -115 4 -115 10 0 7 -3 7 -8 0 -9 -13
-225 -13 -234 0 -5 7 -8 7 -8 0z"/>
</g>
</svg>
